# xmcd CD database file
#
# Track frame offsets:
#	183
#	13133
#	27705
#	40013
#	53785
#	65890
#	81150
#	95240
#	105628
#	118185
#	129595
#	141348
#	153500
#	166448
#	179948
#	193055
#	203310
#	217398
#	228463
#	241543
#	252445
#	266485
#
# Disc length: 3718 seconds
#
# Revision: 0
# Processed by: cddbd v1.5.1PL0 Copyright (c) Steve Scherf et al.
# Submitted via: CDex 1.51
#
DISCID=520e8416
DTITLE=Champion Jack Dupree - 1945-1953
DYEAR=1900
DGENRE=Blues
TTITLE0=Stumbling Block
TTITLE1=Number Nine Blues
TTITLE2=Deacon's Party
TTITLE3=I'm Gonna Find You Someday
TTITLE4=Up And Down The Hill
TTITLE5=I Think You Need A Shot
TTITLE6=Drunk Again
TTITLE7=Rub A Little Boogie
TTITLE8=Ragged And Hungry
TTITLE9=Barrel House Mama
TTITLE10=Goin' Back To Louisiana
TTITLE11=Old Old Woman
TTITLE12=Mean Black Snake
TTITLE13=Baby You Say You Love Me
TTITLE14=Somebody Changed The Lock
TTITLE15=Fifth Avenue Woman
TTITLE16=Highway 31
TTITLE17=Shake Baby Shake
TTITLE18=Highway Blues
TTITLE19=Drinkin' Little Woman
TTITLE20=Mean Mistreatin' Mama
TTITLE21=Shim Sham Shimmy
EXTD=
EXTT0=
EXTT1=
EXTT2=
EXTT3=
EXTT4=
EXTT5=
EXTT6=
EXTT7=
EXTT8=
EXTT9=
EXTT10=
EXTT11=
EXTT12=
EXTT13=
EXTT14=
EXTT15=
EXTT16=
EXTT17=
EXTT18=
EXTT19=
EXTT20=
EXTT21=
PLAYORDER=
